<svg xmlns="http://www.w3.org/2000/svg">
<symbol id="setting" viewBox="0 0 14 14">
<g>
<path d="M11.6438 8.55473L10.7483 7.7891C10.7907 7.52934 10.8126 7.2641 10.8126 6.99887C10.8126 6.73363 10.7907 6.4684 10.7483 6.20863L11.6438 5.44301C11.7114 5.38519 11.7597 5.30817 11.7824 5.22221C11.8051 5.13624 11.8011 5.0454 11.771 4.96176L11.7587 4.92621C11.5121 4.23718 11.143 3.59845 10.669 3.04086L10.6444 3.01215C10.5869 2.94454 10.5103 2.89595 10.4246 2.87276C10.339 2.84958 10.2483 2.85289 10.1645 2.88227L9.05301 3.27738C8.64285 2.94106 8.18485 2.67582 7.68992 2.48988L7.47528 1.32777C7.45908 1.24033 7.41667 1.15989 7.35366 1.09713C7.29066 1.03437 7.21005 0.992262 7.12254 0.976407L7.08563 0.969571C6.37332 0.841055 5.6241 0.841055 4.9118 0.969571L4.87489 0.976407C4.78738 0.992262 4.70677 1.03437 4.64377 1.09713C4.58076 1.15989 4.53835 1.24033 4.52215 1.32777L4.30614 2.49535C3.81516 2.68133 3.35795 2.94642 2.95262 3.28012L1.83289 2.88227C1.74918 2.85266 1.65843 2.84922 1.57271 2.87242C1.487 2.89562 1.41037 2.94436 1.35301 3.01215L1.3284 3.04086C0.855009 3.59884 0.485909 4.23747 0.238754 4.92621L0.226449 4.96176C0.164926 5.13266 0.215512 5.32406 0.353598 5.44301L1.26004 6.21684C1.21766 6.47387 1.19715 6.73637 1.19715 6.9975C1.19715 7.26 1.21766 7.5225 1.26004 7.77817L0.353598 8.55199C0.286053 8.60982 0.23771 8.68683 0.214998 8.7728C0.192285 8.85876 0.19628 8.9496 0.226449 9.03324L0.238754 9.06879C0.486215 9.75785 0.852621 10.3936 1.3284 10.9541L1.35301 10.9829C1.41051 11.0505 1.48714 11.0991 1.5728 11.1222C1.65847 11.1454 1.74915 11.1421 1.83289 11.1127L2.95262 10.7149C3.36004 11.0498 3.81532 11.3151 4.30614 11.4997L4.52215 12.6672C4.53835 12.7547 4.58076 12.8351 4.64377 12.8979C4.70677 12.9606 4.78738 13.0027 4.87489 13.0186L4.9118 13.0254C5.63065 13.1546 6.36678 13.1546 7.08563 13.0254L7.12254 13.0186C7.21005 13.0027 7.29066 12.9606 7.35366 12.8979C7.41667 12.8351 7.45908 12.7547 7.47528 12.6672L7.68992 11.5051C8.18465 11.3197 8.64524 11.0536 9.05301 10.7176L10.1645 11.1127C10.2483 11.1423 10.339 11.1458 10.4247 11.1226C10.5104 11.0994 10.5871 11.0506 10.6444 10.9829L10.669 10.9541C11.1448 10.3922 11.5112 9.75785 11.7587 9.06879L11.771 9.03324C11.8325 8.86508 11.7819 8.67367 11.6438 8.55473ZM9.77762 6.36996C9.8118 6.57641 9.82957 6.78832 9.82957 7.00024C9.82957 7.21215 9.8118 7.42406 9.77762 7.63051L9.68739 8.17875L10.7087 9.05238C10.5539 9.40907 10.3584 9.74672 10.1263 10.0586L8.8575 9.60883L8.42821 9.96156C8.10145 10.2295 7.73778 10.4401 7.34403 10.5877L6.82313 10.7832L6.5784 12.1094C6.19227 12.1532 5.80243 12.1532 5.41629 12.1094L5.17157 10.7805L4.65477 10.5823C4.26512 10.4346 3.90282 10.2241 3.57879 9.95746L3.1495 9.60336L1.87254 10.0573C1.64012 9.74418 1.44598 9.40649 1.29012 9.05102L2.32235 8.16918L2.23348 7.62231C2.20067 7.41859 2.18289 7.20805 2.18289 7.00024C2.18289 6.79106 2.1993 6.58188 2.23348 6.37816L2.32235 5.83129L1.29012 4.94945C1.44461 4.59262 1.64012 4.25629 1.87254 3.9432L3.1495 4.39711L3.57879 4.04301C3.90282 3.77641 4.26512 3.56586 4.65477 3.4182L5.17293 3.2227L5.41766 1.89379C5.80184 1.85004 6.19422 1.85004 6.57977 1.89379L6.8245 3.21996L7.34539 3.41547C7.73778 3.56313 8.10282 3.77367 8.42957 4.04164L8.85887 4.39438L10.1276 3.94457C10.36 4.25766 10.5542 4.59535 10.71 4.95082L9.68875 5.82445L9.77762 6.36996ZM6.00008 4.45727C4.67118 4.45727 3.59383 5.53461 3.59383 6.86352C3.59383 8.19242 4.67118 9.26977 6.00008 9.26977C7.32899 9.26977 8.40633 8.19242 8.40633 6.86352C8.40633 5.53461 7.32899 4.45727 6.00008 4.45727ZM7.08289 7.94633C6.94087 8.08876 6.77209 8.2017 6.58626 8.27866C6.40043 8.35562 6.20122 8.39508 6.00008 8.39477C5.59129 8.39477 5.20711 8.23481 4.91727 7.94633C4.77484 7.80431 4.6619 7.63553 4.58494 7.4497C4.50798 7.26387 4.46852 7.06465 4.46883 6.86352C4.46883 6.45473 4.62879 6.07055 4.91727 5.7807C5.20711 5.49086 5.59129 5.33227 6.00008 5.33227C6.40887 5.33227 6.79305 5.49086 7.08289 5.7807C7.22532 5.92272 7.33827 6.09151 7.41523 6.27734C7.49219 6.46317 7.53164 6.66238 7.53133 6.86352C7.53133 7.27231 7.37137 7.65649 7.08289 7.94633Z" fill="#8C8C8C"/>
</g>
</symbol>


<symbol id="likes-icon" viewBox="0 0 16 16">
<g>
<path d="M4.26562 7.74846V14.436L4.27031 7.74846H4.26562ZM12.675 6.36877H7.7625L7.9125 3.26877C7.92188 3.08283 7.83906 2.90783 7.68437 2.79221C7.58906 2.72189 7.47188 2.68596 7.35469 2.68752C7.04844 2.68908 6.77813 2.89689 6.69531 3.19221C6.11563 5.29221 5.68125 6.86721 5.39062 7.91877V13.3125H11.6313C11.7874 13.2425 11.9201 13.1289 12.0132 12.9853C12.1063 12.8417 12.156 12.6743 12.1562 12.5031C12.1562 12.3516 12.1203 12.2078 12.0484 12.0766L11.8313 11.6797L12.1734 11.3828C12.2698 11.2994 12.347 11.1962 12.3998 11.0803C12.4527 10.9643 12.4799 10.8384 12.4797 10.711C12.4797 10.5594 12.4437 10.4156 12.3719 10.2844L12.1547 9.88752L12.4969 9.59064C12.5932 9.50723 12.6704 9.40403 12.7232 9.28809C12.7761 9.17215 12.8033 9.04618 12.8031 8.91877C12.8031 8.76721 12.7672 8.62346 12.6953 8.49221L12.4766 8.09377L12.8188 7.79689C12.9151 7.71348 12.9923 7.61028 13.0451 7.49434C13.098 7.3784 13.1252 7.25243 13.125 7.12502C13.125 6.82658 12.9531 6.53908 12.675 6.36877Z" fill="#E6F7FF"/>
<path d="M1.75 8.25005V13.9375C1.75 14.2141 1.97344 14.4375 2.25 14.4375H3.26562V7.75005H2.25C1.97344 7.75005 1.75 7.97349 1.75 8.25005ZM13.8422 8.33911C14.1047 7.99224 14.25 7.56724 14.25 7.12505C14.25 6.42349 13.8578 5.75786 13.2266 5.39067C13.0641 5.29535 12.879 5.24519 12.6906 5.24536H8.94219L9.03594 3.32505C9.05937 2.86099 8.89531 2.42036 8.575 2.08442C8.4187 1.91868 8.23 1.78683 8.02061 1.69705C7.81123 1.60728 7.58563 1.5615 7.35781 1.56255C6.54531 1.56255 5.82656 2.10942 5.61094 2.89224L4.27031 7.74849L4.26562 14.436H11.6422C11.7875 14.436 11.9266 14.4079 12.0562 14.3516C12.8 14.0344 13.2797 13.3079 13.2797 12.5016C13.2797 12.3047 13.2516 12.111 13.1953 11.9235C13.4578 11.5766 13.6031 11.1516 13.6031 10.7094C13.6031 10.5125 13.575 10.3188 13.5188 10.1313C13.7812 9.78442 13.9266 9.35942 13.9266 8.91724C13.9266 8.72036 13.8984 8.52661 13.8422 8.33911ZM12.8188 7.79692L12.4766 8.0938L12.6953 8.49224C12.7669 8.62297 12.804 8.76976 12.8031 8.9188C12.8031 9.17661 12.6922 9.42192 12.4969 9.59067L12.1547 9.88755L12.3719 10.2844C12.4434 10.4152 12.4805 10.562 12.4797 10.711C12.4797 10.9688 12.3687 11.2141 12.1734 11.3829L11.8313 11.6797L12.0484 12.0766C12.12 12.2073 12.1571 12.3541 12.1562 12.5032C12.1562 12.8532 11.95 13.1688 11.6313 13.3125H5.39062V7.9188C5.68125 6.8688 6.11562 5.2938 6.69531 3.19224C6.73581 3.04809 6.82198 2.92098 6.94087 2.82998C7.05977 2.73898 7.20497 2.689 7.35469 2.68755C7.47188 2.68599 7.58906 2.72192 7.68437 2.79224C7.83906 2.90786 7.92188 3.08286 7.9125 3.2688L7.7625 6.3688H12.675C12.9531 6.53911 13.125 6.82661 13.125 7.12505C13.125 7.38286 13.0141 7.62817 12.8188 7.79692Z" fill="#1890FF"/>
</g>
</symbol>


<symbol id="likes-icon-footer" viewBox="0 0 24 24">
<g>
<path d="M20.7633 12.5094C21.157 11.9891 21.375 11.3516 21.375 10.6883C21.375 9.63596 20.7867 8.63987 19.8398 8.0844C19.5961 7.94142 19.3185 7.86617 19.0359 7.86643H13.4156L13.5563 4.98596C13.5891 4.28987 13.343 3.62893 12.8648 3.12502C12.6302 2.87665 12.3471 2.67904 12.0331 2.5444C11.7191 2.40975 11.3807 2.34094 11.0391 2.34221C9.82031 2.34221 8.74219 3.16252 8.41875 4.33674L6.40547 11.6258H3.375C2.96016 11.6258 2.625 11.961 2.625 12.3758V20.9071C2.625 21.3219 2.96016 21.6571 3.375 21.6571H17.468C17.6836 21.6571 17.8945 21.6149 18.0891 21.5305C19.2047 21.0547 19.9242 19.9649 19.9242 18.7555C19.9242 18.4602 19.882 18.1696 19.7977 17.8883C20.1914 17.368 20.4094 16.7305 20.4094 16.0672C20.4094 15.7719 20.3672 15.4813 20.2828 15.2C20.6766 14.6797 20.8945 14.0422 20.8945 13.3789C20.8898 13.0836 20.8477 12.7906 20.7633 12.5094ZM4.3125 19.9696V13.3133H6.21094V19.9696H4.3125ZM19.2281 11.6961L18.7148 12.1414L19.0406 12.7367C19.148 12.9328 19.2036 13.153 19.2023 13.3766C19.2023 13.7633 19.0336 14.1313 18.743 14.3844L18.2297 14.8297L18.5555 15.425C18.6628 15.6211 18.7185 15.8413 18.7172 16.0649C18.7172 16.4516 18.5484 16.8196 18.2578 17.0727L17.7445 17.518L18.0703 18.1133C18.1776 18.3094 18.2333 18.5296 18.232 18.7531C18.232 19.2781 17.9227 19.7516 17.4445 19.9672H7.71094V13.2383L10.043 4.78909C10.1031 4.57252 10.2322 4.38147 10.4107 4.24486C10.5891 4.10825 10.8073 4.03354 11.032 4.03205C11.2102 4.03205 11.3859 4.08362 11.5266 4.18909C11.7586 4.36252 11.8828 4.62502 11.8687 4.90393L11.6437 9.55393H19.0125C19.4297 9.8094 19.6875 10.2406 19.6875 10.6883C19.6875 11.075 19.5188 11.4406 19.2281 11.6961Z" fill="#595959"/>
</g>
</symbol>


<symbol id="three-dots" viewBox="0 0 24 24 ">
<g>
<path d="M4.125 11.9766C4.125 12.1489 4.15895 12.3196 4.22491 12.4788C4.29087 12.6381 4.38755 12.7828 4.50942 12.9046C4.6313 13.0265 4.77599 13.1232 4.93523 13.1892C5.09447 13.2551 5.26514 13.2891 5.4375 13.2891C5.60986 13.2891 5.78053 13.2551 5.93977 13.1892C6.09901 13.1232 6.2437 13.0265 6.36558 12.9046C6.48745 12.7828 6.58413 12.6381 6.65009 12.4788C6.71605 12.3196 6.75 12.1489 6.75 11.9766C6.75 11.8042 6.71605 11.6335 6.65009 11.4743C6.58413 11.3151 6.48745 11.1704 6.36558 11.0485C6.2437 10.9266 6.09901 10.8299 5.93977 10.764C5.78053 10.698 5.60986 10.6641 5.4375 10.6641C5.26514 10.6641 5.09447 10.698 4.93523 10.764C4.77599 10.8299 4.6313 10.9266 4.50942 11.0485C4.38755 11.1704 4.29087 11.3151 4.22491 11.4743C4.15895 11.6335 4.125 11.8042 4.125 11.9766ZM10.6875 11.9766C10.6875 12.3247 10.8258 12.6585 11.0719 12.9046C11.3181 13.1508 11.6519 13.2891 12 13.2891C12.3481 13.2891 12.6819 13.1508 12.9281 12.9046C13.1742 12.6585 13.3125 12.3247 13.3125 11.9766C13.3125 11.6285 13.1742 11.2946 12.9281 11.0485C12.6819 10.8023 12.3481 10.6641 12 10.6641C11.6519 10.6641 11.3181 10.8023 11.0719 11.0485C10.8258 11.2946 10.6875 11.6285 10.6875 11.9766ZM17.25 11.9766C17.25 12.3247 17.3883 12.6585 17.6344 12.9046C17.8806 13.1508 18.2144 13.2891 18.5625 13.2891C18.9106 13.2891 19.2444 13.1508 19.4906 12.9046C19.7367 12.6585 19.875 12.3247 19.875 11.9766C19.875 11.6285 19.7367 11.2946 19.4906 11.0485C19.2444 10.8023 18.9106 10.6641 18.5625 10.6641C18.2144 10.6641 17.8806 10.8023 17.6344 11.0485C17.3883 11.2946 17.25 11.6285 17.25 11.9766Z" fill="#595959"/>
</g>
</symbol>



<symbol  id="message" viewBox="0 0 24 24">
<g>
<path d="M10.8752 12C10.8752 12.2984 10.9937 12.5845 11.2047 12.7955C11.4157 13.0065 11.7018 13.125 12.0002 13.125C12.2985 13.125 12.5847 13.0065 12.7957 12.7955C13.0067 12.5845 13.1252 12.2984 13.1252 12C13.1252 11.7016 13.0067 11.4155 12.7957 11.2045C12.5847 10.9935 12.2985 10.875 12.0002 10.875C11.7018 10.875 11.4157 10.9935 11.2047 11.2045C10.9937 11.4155 10.8752 11.7016 10.8752 12ZM15.5627 12C15.5627 12.2984 15.6812 12.5845 15.8922 12.7955C16.1032 13.0065 16.3893 13.125 16.6877 13.125C16.986 13.125 17.2722 13.0065 17.4832 12.7955C17.6942 12.5845 17.8127 12.2984 17.8127 12C17.8127 11.7016 17.6942 11.4155 17.4832 11.2045C17.2722 10.9935 16.986 10.875 16.6877 10.875C16.3893 10.875 16.1032 10.9935 15.8922 11.2045C15.6812 11.4155 15.5627 11.7016 15.5627 12ZM6.18768 12C6.18768 12.2984 6.30621 12.5845 6.51718 12.7955C6.72816 13.0065 7.01431 13.125 7.31268 13.125C7.61105 13.125 7.8972 13.0065 8.10817 12.7955C8.31915 12.5845 8.43768 12.2984 8.43768 12C8.43768 11.7016 8.31915 11.4155 8.10817 11.2045C7.8972 10.9935 7.61105 10.875 7.31268 10.875C7.01431 10.875 6.72816 10.9935 6.51718 11.2045C6.30621 11.4155 6.18768 11.7016 6.18768 12ZM21.6846 7.93125C21.1549 6.67266 20.3955 5.54297 19.4275 4.57266C18.4663 3.60796 17.3253 2.84114 16.0689 2.31563C14.7799 1.77422 13.4111 1.5 12.0002 1.5H11.9533C10.533 1.50703 9.15721 1.78828 7.86346 2.34141C6.61789 2.87232 5.48752 3.64049 4.53534 4.60312C3.57674 5.57109 2.8244 6.69609 2.30409 7.95C1.76502 9.24844 1.49315 10.6289 1.50018 12.0492C1.50813 13.6769 1.89321 15.2806 2.62518 16.7344V20.2969C2.62518 20.5828 2.73877 20.857 2.94095 21.0592C3.14314 21.2614 3.41737 21.375 3.7033 21.375H7.26815C8.72196 22.107 10.3256 22.492 11.9533 22.5H12.0025C13.4064 22.5 14.7681 22.2281 16.0502 21.6961C17.3002 21.1768 18.437 20.419 19.3971 19.4648C20.365 18.5063 21.1267 17.3859 21.6588 16.1367C22.2119 14.843 22.4931 13.4672 22.5002 12.0469C22.5072 10.6195 22.2306 9.23438 21.6846 7.93125ZM18.1431 18.1969C16.5002 19.8234 14.3205 20.7188 12.0002 20.7188H11.9603C10.5471 20.7117 9.14315 20.3602 7.9033 19.6992L7.70643 19.5938H4.40643V16.2938L4.30096 16.0969C3.64002 14.857 3.28846 13.4531 3.28143 12.0398C3.27205 9.70312 4.16502 7.50937 5.8033 5.85703C7.43924 4.20469 9.62596 3.29062 11.9627 3.28125H12.0025C13.1744 3.28125 14.3111 3.50859 15.3822 3.95859C16.4275 4.39687 17.365 5.02734 18.1713 5.83359C18.9752 6.6375 19.608 7.57734 20.0463 8.62266C20.501 9.70547 20.7283 10.8539 20.7236 12.0398C20.7096 14.3742 19.7931 16.5609 18.1431 18.1969Z" fill="#595959"/>
</g>
</symbol>



<symbol id="share" viewBox="0 0 24 24">
<g>
<path d="M17.625 15.5625C16.957 15.5625 16.3406 15.7969 15.8578 16.1883L11.0016 12.675C11.0829 12.2287 11.0829 11.7713 11.0016 11.325L15.8578 7.81172C16.3406 8.20312 16.957 8.4375 17.625 8.4375C19.1766 8.4375 20.4375 7.17656 20.4375 5.625C20.4375 4.07344 19.1766 2.8125 17.625 2.8125C16.0734 2.8125 14.8125 4.07344 14.8125 5.625C14.8125 5.89687 14.85 6.15703 14.9227 6.40547L10.3102 9.74531C9.62578 8.83828 8.53828 8.25 7.3125 8.25C5.24062 8.25 3.5625 9.92812 3.5625 12C3.5625 14.0719 5.24062 15.75 7.3125 15.75C8.53828 15.75 9.62578 15.1617 10.3102 14.2547L14.9227 17.5945C14.85 17.843 14.8125 18.1055 14.8125 18.375C14.8125 19.9266 16.0734 21.1875 17.625 21.1875C19.1766 21.1875 20.4375 19.9266 20.4375 18.375C20.4375 16.8234 19.1766 15.5625 17.625 15.5625ZM17.625 4.40625C18.2977 4.40625 18.8438 4.95234 18.8438 5.625C18.8438 6.29766 18.2977 6.84375 17.625 6.84375C16.9523 6.84375 16.4062 6.29766 16.4062 5.625C16.4062 4.95234 16.9523 4.40625 17.625 4.40625ZM7.3125 14.0625C6.17578 14.0625 5.25 13.1367 5.25 12C5.25 10.8633 6.17578 9.9375 7.3125 9.9375C8.44922 9.9375 9.375 10.8633 9.375 12C9.375 13.1367 8.44922 14.0625 7.3125 14.0625ZM17.625 19.5938C16.9523 19.5938 16.4062 19.0477 16.4062 18.375C16.4062 17.7023 16.9523 17.1562 17.625 17.1562C18.2977 17.1562 18.8438 17.7023 18.8438 18.375C18.8438 19.0477 18.2977 19.5938 17.625 19.5938Z" fill="#595959"/>
</g>
</symbol>


<symbol id="clock-circle" viewBox="0 0 16 16">
<g>
<path d="M8 1C4.13438 1 1 4.13438 1 8C1 11.8656 4.13438 15 8 15C11.8656 15 15 11.8656 15 8C15 4.13438 11.8656 1 8 1ZM8 13.8125C4.79063 13.8125 2.1875 11.2094 2.1875 8C2.1875 4.79063 4.79063 2.1875 8 2.1875C11.2094 2.1875 13.8125 4.79063 13.8125 8C13.8125 11.2094 11.2094 13.8125 8 13.8125Z" fill="#0050B3"/>
<path d="M10.7297 9.97811L8.50156 8.36718V4.5C8.50156 4.43125 8.44531 4.375 8.37656 4.375H7.625C7.55625 4.375 7.5 4.43125 7.5 4.5V8.80311C7.5 8.84374 7.51875 8.88124 7.55156 8.90467L10.1359 10.789C10.1922 10.8297 10.2703 10.8172 10.3109 10.7625L10.7578 10.1531C10.7984 10.0953 10.7859 10.0172 10.7297 9.97811Z" fill="#0050B3"/>
</g>
</symbol>

</svg>


